<svg xmlns="http://www.w3.org/2000/svg" width="980" height="560" viewBox="0 0 980 560">
  <rect width="100%" height="100%" fill="#f8fafc" />
  <text x="240" y="30" font-family="Arial, sans-serif" font-size="24" font-weight="bold" fill="#0f172a">
    Radar Classifier Feature Importance
  </text>
  <text x="240" y="48" font-family="Arial, sans-serif" font-size="13" fill="#475569">
    Higher bars indicate stronger contribution in the trained gradient boosting model.
  </text>
  <line x1="240" y1="52" x2="240" y2="520" stroke="#94a3b8" stroke-width="1" />
  <text x="228" y="77" text-anchor="end" font-family="Arial, sans-serif" font-size="14" fill="#1f2937">PRI_freq_ratio</text><rect x="240" y="60" width="670.00" height="24" rx="4" fill="#2563eb" /><text x="920.00" y="77" font-family="Arial, sans-serif" font-size="13" fill="#111827">0.2436</text><text x="228" y="111" text-anchor="end" font-family="Arial, sans-serif" font-size="14" fill="#1f2937">mean_PRI</text><rect x="240" y="94" width="529.61" height="24" rx="4" fill="#2563eb" /><text x="779.61" y="111" font-family="Arial, sans-serif" font-size="13" fill="#111827">0.1926</text><text x="228" y="145" text-anchor="end" font-family="Arial, sans-serif" font-size="14" fill="#1f2937">mean_frequency</text><rect x="240" y="128" width="515.35" height="24" rx="4" fill="#2563eb" /><text x="765.35" y="145" font-family="Arial, sans-serif" font-size="13" fill="#111827">0.1874</text><text x="228" y="179" text-anchor="end" font-family="Arial, sans-serif" font-size="14" fill="#1f2937">frequency_band</text><rect x="240" y="162" width="442.81" height="24" rx="4" fill="#2563eb" /><text x="692.81" y="179" font-family="Arial, sans-serif" font-size="13" fill="#111827">0.1610</text><text x="228" y="213" text-anchor="end" font-family="Arial, sans-serif" font-size="14" fill="#1f2937">PRI_stability</text><rect x="240" y="196" width="219.05" height="24" rx="4" fill="#2563eb" /><text x="469.05" y="213" font-family="Arial, sans-serif" font-size="13" fill="#111827">0.0796</text><text x="228" y="247" text-anchor="end" font-family="Arial, sans-serif" font-size="14" fill="#1f2937">mean_pulse_width</text><rect x="240" y="230" width="133.03" height="24" rx="4" fill="#2563eb" /><text x="383.03" y="247" font-family="Arial, sans-serif" font-size="13" fill="#111827">0.0484</text><text x="228" y="281" text-anchor="end" font-family="Arial, sans-serif" font-size="14" fill="#1f2937">PRI_variance</text><rect x="240" y="264" width="121.30" height="24" rx="4" fill="#2563eb" /><text x="371.30" y="281" font-family="Arial, sans-serif" font-size="13" fill="#111827">0.0441</text><text x="228" y="315" text-anchor="end" font-family="Arial, sans-serif" font-size="14" fill="#1f2937">frequency_variance</text><rect x="240" y="298" width="52.12" height="24" rx="4" fill="#2563eb" /><text x="302.12" y="315" font-family="Arial, sans-serif" font-size="13" fill="#111827">0.0190</text><text x="228" y="349" text-anchor="end" font-family="Arial, sans-serif" font-size="14" fill="#1f2937">frequency_stability</text><rect x="240" y="332" width="49.27" height="24" rx="4" fill="#2563eb" /><text x="299.27" y="349" font-family="Arial, sans-serif" font-size="13" fill="#111827">0.0179</text><text x="228" y="383" text-anchor="end" font-family="Arial, sans-serif" font-size="14" fill="#1f2937">variance_ratio</text><rect x="240" y="366" width="5.90" height="24" rx="4" fill="#2563eb" /><text x="255.90" y="383" font-family="Arial, sans-serif" font-size="13" fill="#111827">0.0021</text><text x="228" y="417" text-anchor="end" font-family="Arial, sans-serif" font-size="14" fill="#1f2937">pulse_energy</text><rect x="240" y="400" width="5.49" height="24" rx="4" fill="#2563eb" /><text x="255.49" y="417" font-family="Arial, sans-serif" font-size="13" fill="#111827">0.0020</text><text x="228" y="451" text-anchor="end" font-family="Arial, sans-serif" font-size="14" fill="#1f2937">duty_cycle</text><rect x="240" y="434" width="3.49" height="24" rx="4" fill="#2563eb" /><text x="253.49" y="451" font-family="Arial, sans-serif" font-size="13" fill="#111827">0.0013</text><text x="228" y="485" text-anchor="end" font-family="Arial, sans-serif" font-size="14" fill="#1f2937">PRI_range</text><rect x="240" y="468" width="2.77" height="24" rx="4" fill="#2563eb" /><text x="252.77" y="485" font-family="Arial, sans-serif" font-size="13" fill="#111827">0.0010</text><text x="228" y="519" text-anchor="end" font-family="Arial, sans-serif" font-size="14" fill="#1f2937">PRI_pattern_encoded</text><rect x="240" y="502" width="0.12" height="24" rx="4" fill="#2563eb" /><text x="250.12" y="519" font-family="Arial, sans-serif" font-size="13" fill="#111827">0.0000</text>
</svg>
